<svg width="22" height="22" viewBox="0 0 22 22" fill="none" xmlns="http://www.w3.org/2000/svg">
<path fill-rule="evenodd" clip-rule="evenodd" d="M11 1.75C5.89137 1.75 1.75 5.89137 1.75 11C1.75 12.6861 2.20043 14.2647 2.98703 15.6245C3.07666 15.7794 3.10792 15.9613 3.07515 16.1373L2.43742 19.5626L5.86272 18.9248C6.0387 18.8921 6.2206 18.9233 6.37554 19.013C7.73533 19.7996 9.31393 20.25 11 20.25C16.1086 20.25 20.25 16.1086 20.25 11C20.25 5.89137 16.1086 1.75 11 1.75ZM0.25 11C0.25 5.06294 5.06294 0.25 11 0.25C16.9371 0.25 21.75 5.06294 21.75 11C21.75 16.9371 16.9371 21.75 11 21.75C9.14369 21.75 7.39536 21.2789 5.87016 20.4492L1.63728 21.2373C1.39423 21.2826 1.14449 21.2051 0.96967 21.0303C0.794853 20.8555 0.717419 20.6058 0.762671 20.3627L1.55076 16.1298C0.721126 14.6046 0.25 12.8563 0.25 11Z" fill="white"/>
</svg>
